<mxfile host="app.diagrams.net" modified="2020-09-28T22:56:44.079Z" agent="5.0 (Windows NT 10.0; Win64; x64) AppleWebKit/537.36 (KHTML, like Gecko) Chrome/85.0.4183.121 Safari/537.36" etag="a9dA5824yP9sve9eIBAI" version="13.7.6" type="github">
  <diagram id="yrDRtvGd1qdjV5cKoWBt" name="Page-1">
    <mxGraphModel dx="3360" dy="567" grid="1" gridSize="12" guides="1" tooltips="1" connect="1" arrows="1" fold="1" page="1" pageScale="1" pageWidth="2339" pageHeight="3300" math="0" shadow="0">
      <root>
        <mxCell id="0" />
        <mxCell id="1" parent="0" />
        <mxCell id="GqeQTcDeVD9m8IYauYIb-25" style="edgeStyle=orthogonalEdgeStyle;rounded=0;orthogonalLoop=1;jettySize=auto;html=1;entryX=0.5;entryY=0;entryDx=0;entryDy=0;" edge="1" parent="1" source="GqeQTcDeVD9m8IYauYIb-2" target="GqeQTcDeVD9m8IYauYIb-4">
          <mxGeometry relative="1" as="geometry" />
        </mxCell>
        <mxCell id="GqeQTcDeVD9m8IYauYIb-2" value="START" style="ellipse;whiteSpace=wrap;html=1;" vertex="1" parent="1">
          <mxGeometry x="-473" width="120" height="80" as="geometry" />
        </mxCell>
        <mxCell id="GqeQTcDeVD9m8IYauYIb-21" style="edgeStyle=orthogonalEdgeStyle;rounded=0;orthogonalLoop=1;jettySize=auto;html=1;entryX=0.5;entryY=0;entryDx=0;entryDy=0;" edge="1" parent="1" source="GqeQTcDeVD9m8IYauYIb-4" target="GqeQTcDeVD9m8IYauYIb-9">
          <mxGeometry relative="1" as="geometry" />
        </mxCell>
        <mxCell id="GqeQTcDeVD9m8IYauYIb-4" value="e_nro_1,&amp;nbsp;e_nro_2,&amp;nbsp;e_nro_3" style="shape=internalStorage;whiteSpace=wrap;html=1;backgroundOutline=1;" vertex="1" parent="1">
          <mxGeometry x="-509.5" y="150" width="193" height="90" as="geometry" />
        </mxCell>
        <mxCell id="GqeQTcDeVD9m8IYauYIb-20" style="edgeStyle=orthogonalEdgeStyle;rounded=0;orthogonalLoop=1;jettySize=auto;html=1;entryX=0.5;entryY=0;entryDx=0;entryDy=0;" edge="1" parent="1" source="GqeQTcDeVD9m8IYauYIb-7" target="GqeQTcDeVD9m8IYauYIb-8">
          <mxGeometry relative="1" as="geometry" />
        </mxCell>
        <mxCell id="GqeQTcDeVD9m8IYauYIb-7" value="&lt;span&gt;e_nro_2&lt;/span&gt;" style="shape=manualInput;whiteSpace=wrap;html=1;" vertex="1" parent="1">
          <mxGeometry x="-479.5" y="410" width="133" height="80" as="geometry" />
        </mxCell>
        <mxCell id="GqeQTcDeVD9m8IYauYIb-27" style="edgeStyle=orthogonalEdgeStyle;rounded=0;orthogonalLoop=1;jettySize=auto;html=1;" edge="1" parent="1" source="GqeQTcDeVD9m8IYauYIb-8" target="GqeQTcDeVD9m8IYauYIb-26">
          <mxGeometry relative="1" as="geometry" />
        </mxCell>
        <mxCell id="GqeQTcDeVD9m8IYauYIb-8" value="&lt;span&gt;e_nro_3&lt;/span&gt;" style="shape=manualInput;whiteSpace=wrap;html=1;" vertex="1" parent="1">
          <mxGeometry x="-479.5" y="530" width="133" height="80" as="geometry" />
        </mxCell>
        <mxCell id="GqeQTcDeVD9m8IYauYIb-19" style="edgeStyle=orthogonalEdgeStyle;rounded=0;orthogonalLoop=1;jettySize=auto;html=1;" edge="1" parent="1" source="GqeQTcDeVD9m8IYauYIb-9" target="GqeQTcDeVD9m8IYauYIb-7">
          <mxGeometry relative="1" as="geometry" />
        </mxCell>
        <mxCell id="GqeQTcDeVD9m8IYauYIb-9" value="e_nro_1" style="shape=manualInput;whiteSpace=wrap;html=1;" vertex="1" parent="1">
          <mxGeometry x="-479.5" y="280" width="133" height="80" as="geometry" />
        </mxCell>
        <mxCell id="GqeQTcDeVD9m8IYauYIb-32" style="edgeStyle=orthogonalEdgeStyle;rounded=0;orthogonalLoop=1;jettySize=auto;html=1;entryX=0.5;entryY=0;entryDx=0;entryDy=0;" edge="1" parent="1" source="GqeQTcDeVD9m8IYauYIb-26" target="GqeQTcDeVD9m8IYauYIb-31">
          <mxGeometry relative="1" as="geometry" />
        </mxCell>
        <mxCell id="GqeQTcDeVD9m8IYauYIb-26" value="e_nro_1&amp;gt;e_nro_2" style="rhombus;whiteSpace=wrap;html=1;" vertex="1" parent="1">
          <mxGeometry x="-488" y="660" width="150" height="90" as="geometry" />
        </mxCell>
        <mxCell id="GqeQTcDeVD9m8IYauYIb-35" style="edgeStyle=orthogonalEdgeStyle;rounded=0;orthogonalLoop=1;jettySize=auto;html=1;entryX=0.5;entryY=0;entryDx=0;entryDy=0;" edge="1" parent="1" source="GqeQTcDeVD9m8IYauYIb-31" target="GqeQTcDeVD9m8IYauYIb-36">
          <mxGeometry relative="1" as="geometry">
            <mxPoint x="-501" y="888" as="targetPoint" />
          </mxGeometry>
        </mxCell>
        <mxCell id="GqeQTcDeVD9m8IYauYIb-31" value="e_nro_1&amp;gt;e_nro_3" style="rhombus;whiteSpace=wrap;html=1;" vertex="1" parent="1">
          <mxGeometry x="-768" y="768" width="150" height="90" as="geometry" />
        </mxCell>
        <mxCell id="GqeQTcDeVD9m8IYauYIb-39" style="edgeStyle=orthogonalEdgeStyle;rounded=0;orthogonalLoop=1;jettySize=auto;html=1;entryX=0.5;entryY=0;entryDx=0;entryDy=0;" edge="1" parent="1" source="GqeQTcDeVD9m8IYauYIb-36" target="GqeQTcDeVD9m8IYauYIb-38">
          <mxGeometry relative="1" as="geometry" />
        </mxCell>
        <mxCell id="GqeQTcDeVD9m8IYauYIb-36" value="e_nro_3" style="shape=document;whiteSpace=wrap;html=1;boundedLbl=1;" vertex="1" parent="1">
          <mxGeometry x="-564" y="888" width="120" height="80" as="geometry" />
        </mxCell>
        <mxCell id="GqeQTcDeVD9m8IYauYIb-42" style="edgeStyle=orthogonalEdgeStyle;rounded=0;orthogonalLoop=1;jettySize=auto;html=1;" edge="1" parent="1" source="GqeQTcDeVD9m8IYauYIb-37" target="GqeQTcDeVD9m8IYauYIb-41">
          <mxGeometry relative="1" as="geometry" />
        </mxCell>
        <mxCell id="GqeQTcDeVD9m8IYauYIb-37" value="e_nro_2" style="shape=document;whiteSpace=wrap;html=1;boundedLbl=1;" vertex="1" parent="1">
          <mxGeometry x="-564" y="1140" width="120" height="80" as="geometry" />
        </mxCell>
        <mxCell id="GqeQTcDeVD9m8IYauYIb-40" style="edgeStyle=orthogonalEdgeStyle;rounded=0;orthogonalLoop=1;jettySize=auto;html=1;entryX=0.5;entryY=0;entryDx=0;entryDy=0;" edge="1" parent="1" source="GqeQTcDeVD9m8IYauYIb-38" target="GqeQTcDeVD9m8IYauYIb-37">
          <mxGeometry relative="1" as="geometry" />
        </mxCell>
        <mxCell id="GqeQTcDeVD9m8IYauYIb-38" value="e_nro_1" style="shape=document;whiteSpace=wrap;html=1;boundedLbl=1;" vertex="1" parent="1">
          <mxGeometry x="-564" y="1008" width="120" height="80" as="geometry" />
        </mxCell>
        <mxCell id="GqeQTcDeVD9m8IYauYIb-41" value="END" style="ellipse;whiteSpace=wrap;html=1;" vertex="1" parent="1">
          <mxGeometry x="-564" y="1320" width="120" height="80" as="geometry" />
        </mxCell>
      </root>
    </mxGraphModel>
  </diagram>
</mxfile>
